<svg width="52" height="52" viewBox="0 0 52 52" fill="none" xmlns="http://www.w3.org/2000/svg">
<path d="M7.93749 44.7015C5.45423 42.3031 3.47349 39.4341 2.11086 36.262C0.748223 33.0899 0.0309809 29.6782 0.000981676 26.2259C-0.0290175 22.7737 0.628827 19.35 1.93613 16.1547C3.24343 12.9594 5.17401 10.0564 7.61522 7.61522C10.0564 5.17401 12.9594 3.24343 16.1547 1.93613C19.35 0.628827 22.7737 -0.0290175 26.2259 0.000981676C29.6782 0.0309809 33.0899 0.748223 36.262 2.11086C39.4341 3.47349 42.3031 5.45423 44.7015 7.93749C49.4376 12.8411 52.0583 19.4088 51.999 26.2259C51.9398 33.043 49.2054 39.5642 44.3848 44.3848C39.5642 49.2054 33.043 51.9398 26.2259 51.999C19.4088 52.0583 12.8411 49.4376 7.93749 44.7015ZM11.6035 41.0355C15.5064 44.9384 20.7999 47.1311 26.3195 47.1311C31.8391 47.1311 37.1326 44.9384 41.0355 41.0355C44.9384 37.1326 47.1311 31.8391 47.1311 26.3195C47.1311 20.7999 44.9384 15.5064 41.0355 11.6035C37.1326 7.70057 31.8391 5.50793 26.3195 5.50793C20.7999 5.50793 15.5064 7.70057 11.6035 11.6035C7.70057 15.5064 5.50793 20.7999 5.50793 26.3195C5.50793 31.8391 7.70057 37.1326 11.6035 41.0355ZM37.3435 18.9615L29.9855 26.3195L37.3435 33.6775L33.6775 37.3435L26.3195 29.9855L18.9615 37.3435L15.2955 33.6775L22.6535 26.3195L15.2955 18.9615L18.9615 15.2955L26.3195 22.6535L33.6775 15.2955L37.3435 18.9615Z" fill="#212121"/>
</svg>
