<svg width="27" height="28" viewBox="0 0 27 28" fill="none" xmlns="http://www.w3.org/2000/svg">
<path d="M26.881 13.4395V26.88C26.881 27.177 26.763 27.4619 26.5529 27.6719C26.3429 27.882 26.058 28 25.761 28H17.9207C17.6236 28 17.3387 27.882 17.1287 27.6719C16.9186 27.4619 16.8006 27.177 16.8006 26.88V19.5997C16.8006 19.4512 16.7416 19.3087 16.6366 19.2037C16.5316 19.0987 16.3891 19.0397 16.2406 19.0397H10.6404C10.4919 19.0397 10.3494 19.0987 10.2444 19.2037C10.1394 19.3087 10.0804 19.4512 10.0804 19.5997V26.88C10.0804 27.177 9.96237 27.4619 9.75232 27.6719C9.54227 27.882 9.25739 28 8.96033 28H1.12004C0.822988 28 0.538101 27.882 0.328053 27.6719C0.118004 27.4619 0 27.177 0 26.88V13.4395C0.000275375 12.8455 0.236464 12.2759 0.656624 11.856L11.857 0.655586C12.2771 0.235807 12.8466 0 13.4405 0C14.0344 0 14.6039 0.235807 15.024 0.655586L26.2244 11.856C26.6445 12.2759 26.8807 12.8455 26.881 13.4395Z" fill="white"/>
</svg>
