<svg width="22" height="21" viewBox="0 0 22 21" fill="none" xmlns="http://www.w3.org/2000/svg">
<path d="M9.91275 0.712909C10.3916 -0.237636 11.7751 -0.237636 12.254 0.712909L14.6161 5.40202C14.8062 5.77948 15.1738 6.04111 15.599 6.10164L20.8809 6.85357C21.9516 7.006 22.3792 8.29511 21.6044 9.035L17.7823 12.685C17.4747 12.9788 17.3343 13.4021 17.4069 13.817L18.3092 18.9708C18.4921 20.0156 17.3728 20.8123 16.4151 20.319L11.6908 17.8857C11.3105 17.6898 10.8562 17.6898 10.4759 17.8857L5.7516 20.319C4.79392 20.8123 3.67463 20.0156 3.85753 18.9708L4.75979 13.817C4.83242 13.4021 4.69203 12.9788 4.38436 12.685L0.562329 9.035C-0.212448 8.29511 0.215084 7.006 1.2858 6.85357L6.56772 6.10164C6.9929 6.04111 7.36046 5.77948 7.55061 5.40202L9.91275 0.712909Z" fill="#A1A1A1"/>
</svg>
