<svg width="23" height="21" viewBox="0 0 23 21" fill="none" xmlns="http://www.w3.org/2000/svg">
<path d="M10.6211 0.712909C11.0999 -0.237636 12.4834 -0.237636 12.9623 0.712909L15.3244 5.40202C15.5146 5.77948 15.8821 6.04111 16.3073 6.10164L21.5892 6.85357C22.6599 7.006 23.0875 8.29511 22.3127 9.035L18.4907 12.685C18.183 12.9788 18.0426 13.4021 18.1152 13.817L19.0175 18.9708C19.2004 20.0156 18.0811 20.8123 17.1234 20.319L12.3991 17.8857C12.0188 17.6898 11.5645 17.6898 11.1842 17.8857L6.45991 20.319C5.50224 20.8123 4.38295 20.0156 4.56585 18.9708L5.4681 13.817C5.54073 13.4021 5.40034 12.9788 5.09268 12.685L1.27064 9.035C0.495865 8.29511 0.923397 7.006 1.99411 6.85357L7.27603 6.10164C7.70122 6.04111 8.06877 5.77948 8.25892 5.40202L10.6211 0.712909Z" fill="#FF7300"/>
</svg>
