<svg width="26" height="26" viewBox="0 0 26 26" fill="none" xmlns="http://www.w3.org/2000/svg">
<mask id="mask0_353_315" style="mask-type:luminance" maskUnits="userSpaceOnUse" x="0" y="0" width="26" height="26">
<path d="M0.833496 0.833328H25.8335V25.8333H0.833496V0.833328Z" fill="white"/>
</mask>
<g mask="url(#mask0_353_315)">
<path d="M15.6888 1.01754L14.9388 0.912273C12.6847 0.586823 10.3846 0.908794 8.30657 1.84065C6.22853 2.77251 4.45818 4.27585 3.20192 6.17543C1.86528 7.99119 1.06848 10.1475 0.903206 12.3961C0.737935 14.6447 1.21091 16.8943 2.26771 18.886C2.37586 19.0856 2.4432 19.3047 2.46579 19.5306C2.48838 19.7565 2.46577 19.9847 2.39929 20.2017C1.85981 22.057 1.35981 23.9254 0.833496 25.886L1.49139 25.6886C3.26771 25.2149 5.04402 24.7412 6.82034 24.307C7.19526 24.2291 7.58496 24.2657 7.93876 24.4123C9.53244 25.1901 11.2741 25.618 13.0467 25.6673C14.8194 25.7166 16.5821 25.3861 18.2165 24.6981C19.851 24.0101 21.3193 22.9804 22.5231 21.6782C23.7269 20.376 24.6381 18.8314 25.1958 17.148C25.7535 15.4646 25.9446 13.6814 25.7564 11.9181C25.5681 10.1547 25.0049 8.45206 24.1045 6.92432C23.204 5.39658 21.9872 4.07911 20.5357 3.06033C19.0842 2.04156 17.4316 1.34504 15.6888 1.01754ZM19.0045 18.2807C18.5263 18.7088 17.9432 19.0026 17.3145 19.132C16.6858 19.2615 16.0341 19.222 15.4256 19.0175C12.6689 18.2401 10.2772 16.5105 8.6756 14.136C8.06399 13.2959 7.57242 12.3748 7.21508 11.3991C7.02146 10.833 6.98655 10.2247 7.11412 9.64021C7.24169 9.05569 7.52689 8.51726 7.93876 8.08333C8.13927 7.82742 8.4122 7.63784 8.72199 7.53927C9.03179 7.4407 9.36408 7.43771 9.6756 7.53069C9.93876 7.59648 10.123 7.97806 10.3598 8.26754C10.5528 8.81139 10.7765 9.3421 11.0309 9.85964C11.2235 10.1235 11.304 10.4528 11.2547 10.7757C11.2054 11.0987 11.0303 11.389 10.7677 11.5833C10.1756 12.1096 10.2677 12.5439 10.6888 13.136C11.6191 14.4774 12.9037 15.5342 14.3993 16.1886C14.8203 16.3728 15.1361 16.4123 15.4124 15.9781C15.5309 15.807 15.6888 15.6623 15.8203 15.5044C16.5835 14.5438 16.3467 14.557 17.5572 15.0833C17.9431 15.2456 18.316 15.4342 18.6756 15.6491C19.0309 15.8596 19.5703 16.0833 19.6493 16.3991C19.7252 16.7417 19.7053 17.0986 19.5915 17.4306C19.4778 17.7625 19.2747 18.0567 19.0045 18.2807Z" fill="#212121"/>
</g>
</svg>
